PathFileType  4	(X/Y/Z) /Users/kristensteudel/Documents/NMBL_Research/BertecForceProcessing/anc_files/
DataRate	CameraRate	NumFrames	NumMarkers	Units	OrigDataRate	OrigDataStartFrame	OrigNumFrames
  200.0		  200.0		    10		     46		 mm	  200.0	      449	    718
Frame#	Time	r_knee			r_shank_antsup			r_ankle			r_calc			r_5meta			r_toe			L_knee			L_shank_antsup			L_ankle			L_calc			L_5meta			L_toe			r_sh2			r_sh3			r_sh4			L_sh2			L_sh3			r_thigh1			r_thigh2			r_thigh3			r_thigh4			r_thigh5			L_thigh1			L_thigh2			L_thigh3			L_thigh4			r.ASIS			r.PSIS			L.ASIS			L.PSIS			C7			R_Shoulder			L_Shoulder			Sternum			R_humerus			R_elbow_med			R_elbow_lat			R_forearm			R_wrist_radius			R_wrist_ulna			L_humerus			L_elbow_med			L_elbow_lat			L_forearm			L_wrist_radius			L_wrist_ulna			
		X1	Y1	Z1	X2	Y2	Z2	X3	Y3	Z3	X4	Y4	Z4	X5	Y5	Z5	X6	Y6	Z6	X7	Y7	Z7	X8	Y8	Z8	X9	Y9	Z9	X10	Y10	Z10	X11	Y11	Z11	X12	Y12	Z12	X13	Y13	Z13	X14	Y14	Z14	X15	Y15	Z15	X16	Y16	Z16	X17	Y17	Z17	X18	Y18	Z18	X19	Y19	Z19	X20	Y20	Z20	X21	Y21	Z21	X22	Y22	Z22	X23	Y23	Z23	X24	Y24	Z24	X25	Y25	Z25	X26	Y26	Z26	X27	Y27	Z27	X28	Y28	Z28	X29	Y29	Z29	X30	Y30	Z30	X31	Y31	Z31	X32	Y32	Z32	X33	Y33	Z33	X34	Y34	Z34	X35	Y35	Z35	X36	Y36	Z36	X37	Y37	Z37	X38	Y38	Z38	X39	Y39	Z39	X40	Y40	Z40	X41	Y41	Z41	X42	Y42	Z42	X43	Y43	Z43	X44	Y44	Z44	X45	Y45	Z45	X46	Y46	Z46	

449	2.24000	917.423	490.313	-177.160	899.515	363.079	-190.547	708.431	110.968	-268.948	627.791	90.610	-338.740	796.979	33.196	-227.780	849.367	48.211	-285.764	988.519	504.326	-478.230	880.373	481.865	-478.561	593.247	601.566	-446.503	582.941	669.554	-402.681	490.098	471.372	-447.318	497.868	444.550	-373.512	843.020	261.629	-217.773	835.386	389.525	-163.322	771.818	300.944	-202.082	904.275	565.238	-503.760	783.792	590.606	-485.406	932.198	715.641	-122.135	955.982	607.956	-156.237	920.924	563.492	-147.784	823.137	681.875	-114.262	855.533	575.650	-152.587	1001.463	727.017	-458.909	1046.621	594.538	-454.166	902.115	698.820	-517.211	947.373	569.280	-492.135	873.798	962.618	-158.741	674.849	1021.750	-257.029	890.062	941.431	-423.019	688.725	1033.348	-348.014	821.805	1498.019	-293.666	848.435	1439.434	-88.456	901.508	1471.404	-482.389	972.843	1377.066	-283.023	762.815	1214.014	-39.715	632.344	1127.176	-100.547	642.254	1149.124	-12.755	803.821	1072.630	-34.761	897.793	1023.596	-62.768	871.952	982.476	-41.796	776.563	1265.785	-577.925	633.983	1202.798	-540.393	681.008	1233.905	-620.365	799.992	1113.602	-584.786	884.574	1071.687	-506.131	852.429	1030.229	-559.116
450	2.24500	901.436	483.668	-177.540	879.830	357.169	-191.181	678.949	113.828	-268.046	597.669	96.232	-337.316	765.390	33.204	-227.293	817.705	47.999	-285.372	1005.580	514.286	-476.507	898.547	485.898	-477.134	604.480	589.914	-447.462	588.625	656.389	-402.715	511.255	453.057	-450.719	519.625	425.578	-377.374	819.000	258.395	-218.085	816.876	386.877	-164.820	749.456	300.131	-201.906	917.793	571.228	-503.501	797.383	589.847	-484.547	925.343	709.786	-122.168	945.326	601.207	-156.797	908.703	558.343	-147.917	815.203	679.897	-115.108	843.927	572.454	-152.864	1007.644	738.139	-456.901	1059.179	607.712	-452.057	910.880	705.012	-516.551	961.708	577.351	-491.032	873.946	961.925	-158.692	674.255	1021.880	-257.586	889.400	939.764	-423.391	688.788	1032.527	-348.497	821.158	1498.087	-294.154	852.365	1438.959	-88.005	898.213	1471.487	-483.041	971.970	1377.028	-285.009	771.487	1212.540	-38.700	640.798	1122.214	-96.189	652.637	1144.334	-8.649	816.476	1073.124	-34.369	911.641	1027.984	-63.719	887.806	985.796	-42.285	768.739	1268.255	-578.298	626.441	1206.445	-538.877	672.288	1238.005	-619.266	789.935	1115.389	-586.431	875.390	1071.895	-509.162	841.830	1031.257	-561.866
451	2.25000	883.912	476.532	-177.490	859.857	352.510	-192.441	649.726	117.374	-266.811	567.694	102.530	-335.886	733.574	33.149	-227.269	785.792	47.803	-285.123	1021.754	525.116	-474.584	916.419	490.481	-476.096	616.153	576.987	-447.860	594.337	641.753	-402.589	533.484	433.851	-454.465	542.849	405.662	-381.139	795.341	255.438	-218.293	798.171	383.744	-164.753	727.678	299.467	-201.541	931.128	576.487	-501.736	809.700	588.605	-483.125	918.662	703.340	-122.228	934.194	593.993	-156.339	895.412	552.525	-148.091	807.117	678.379	-115.877	831.543	569.817	-153.310	1013.228	749.070	-454.914	1070.794	621.451	-450.013	918.764	711.685	-515.956	975.367	586.083	-489.511	874.109	961.105	-158.728	674.172	1022.127	-257.833	888.944	938.673	-424.429	688.945	1031.869	-348.905	820.747	1498.479	-294.757	856.347	1439.531	-88.163	894.547	1472.177	-483.724	971.090	1377.576	-287.093	779.873	1211.814	-37.848	649.677	1118.606	-92.380	662.757	1140.686	-4.807	828.354	1075.490	-33.805	924.829	1033.718	-65.250	903.276	990.867	-42.889	761.168	1271.591	-578.680	619.137	1211.009	-537.430	663.994	1242.752	-618.041	780.281	1118.264	-587.816	864.935	1072.972	-511.278	830.846	1033.152	-563.644
452	2.25500	866.051	470.079	-177.264	839.440	347.615	-192.822	620.743	121.165	-265.776	538.095	109.857	-334.675	701.643	33.297	-226.946	753.951	47.636	-284.778	1036.875	536.498	-472.496	933.976	496.159	-473.412	627.824	563.051	-448.124	600.438	625.622	-402.134	556.985	414.268	-457.987	567.588	385.706	-384.728	771.223	253.298	-218.681	779.338	381.050	-163.575	705.281	300.030	-200.855	943.662	582.103	-499.452	821.646	587.196	-481.775	911.496	697.291	-122.246	921.933	586.932	-155.433	881.077	547.871	-147.568	798.918	677.547	-116.306	818.302	567.978	-153.735	1018.113	760.057	-453.357	1082.642	635.860	-448.101	926.185	718.677	-515.173	987.774	595.263	-487.829	874.395	960.235	-158.842	674.904	1022.747	-258.148	888.374	938.462	-425.792	689.200	1031.384	-349.234	819.320	1500.075	-293.070	860.461	1440.908	-88.782	890.678	1473.639	-484.279	970.298	1378.571	-289.441	787.669	1211.910	-37.108	658.533	1116.190	-88.827	672.525	1138.094	-1.286	839.547	1079.295	-33.521	937.355	1041.246	-67.735	918.224	997.660	-43.512	753.854	1275.681	-579.058	611.588	1216.238	-536.071	655.708	1248.297	-616.882	771.042	1122.155	-588.960	855.925	1075.692	-513.658	820.183	1035.785	-565.566
453	2.26000	847.497	464.918	-176.034	818.107	344.171	-192.174	592.100	125.693	-264.964	508.979	117.992	-333.500	669.732	33.542	-226.565	722.052	47.558	-284.354	1050.986	548.649	-470.256	950.572	501.536	-471.265	640.117	547.951	-448.023	607.048	608.004	-401.901	581.954	394.559	-460.911	593.733	365.610	-388.354	745.828	253.045	-218.496	759.509	380.162	-163.460	681.586	302.993	-199.875	955.027	587.885	-496.809	833.163	585.579	-480.368	904.348	691.672	-122.949	909.232	580.295	-154.400	866.191	543.554	-147.381	790.887	677.390	-116.306	804.809	566.904	-153.909	1022.572	771.058	-452.043	1091.985	649.745	-445.869	932.924	725.582	-514.200	999.329	604.784	-486.011	874.909	959.391	-159.025	675.554	1023.683	-257.614	888.024	939.639	-427.268	689.559	1031.084	-349.480	817.106	1500.905	-291.806	864.336	1443.015	-89.949	886.362	1475.667	-484.841	969.491	1380.058	-291.957	794.961	1213.078	-36.239	666.751	1114.956	-85.803	681.979	1136.710	1.834	850.067	1084.211	-33.251	949.024	1049.572	-69.448	932.091	1005.629	-44.872	746.454	1280.647	-580.484	605.220	1221.507	-534.796	647.727	1254.337	-615.874	762.188	1126.934	-589.839	847.404	1079.731	-515.659	810.463	1039.986	-566.973
454	2.26500	829.327	461.773	-175.724	796.210	343.274	-191.118	563.955	130.502	-263.928	481.165	126.672	-332.323	637.784	34.076	-226.485	690.304	47.422	-284.294	1063.948	560.403	-468.252	967.567	505.617	-470.170	652.955	532.452	-447.801	614.602	588.637	-401.048	607.862	374.500	-463.506	621.175	345.754	-391.706	720.779	254.386	-216.835	738.732	381.771	-163.177	658.458	306.703	-198.946	965.080	593.383	-493.978	843.721	583.077	-478.594	896.885	686.318	-123.429	896.118	574.648	-154.261	851.365	540.391	-147.263	782.944	677.705	-116.382	791.216	566.612	-153.778	1026.389	782.073	-451.166	1100.345	663.267	-443.808	939.010	732.489	-513.807	1009.898	614.510	-483.903	875.758	958.649	-159.270	676.701	1024.741	-256.883	887.894	942.428	-428.607	690.028	1030.982	-349.639	816.151	1502.929	-290.984	867.933	1445.855	-91.282	881.928	1478.062	-485.251	969.070	1381.900	-294.801	801.786	1214.978	-35.358	675.332	1114.313	-82.615	690.961	1136.561	4.664	860.522	1090.039	-33.202	959.667	1059.180	-71.408	945.188	1014.941	-46.028	739.127	1285.778	-580.629	598.120	1227.751	-533.457	639.807	1260.832	-614.925	753.592	1132.597	-590.362	839.606	1084.769	-517.355	801.515	1045.225	-567.975
455	2.27000	811.175	460.575	-175.042	774.046	344.032	-189.817	536.269	135.618	-262.743	453.787	136.075	-331.062	606.412	34.861	-226.211	658.769	47.543	-284.467	1076.063	572.995	-466.882	980.385	515.041	-473.732	666.707	515.585	-447.862	623.465	568.397	-400.556	635.199	355.347	-466.171	650.129	327.242	-395.220	696.198	256.925	-214.649	717.427	384.609	-163.185	635.351	311.244	-198.405	974.459	598.782	-490.927	853.860	580.076	-477.330	889.176	681.609	-123.728	882.070	569.824	-153.590	836.550	537.775	-147.094	775.008	678.707	-116.155	777.561	566.879	-153.314	1029.810	792.808	-450.526	1107.956	676.719	-441.734	944.519	739.598	-512.865	1019.476	624.249	-481.710	877.049	958.084	-159.570	678.311	1026.000	-255.530	887.711	946.860	-429.824	690.612	1031.091	-349.707	814.126	1504.680	-290.362	870.705	1449.068	-92.658	876.838	1481.345	-485.844	966.915	1383.888	-297.801	808.165	1217.683	-34.097	683.285	1114.444	-79.831	699.808	1137.429	7.586	869.902	1096.881	-33.423	969.300	1069.449	-73.348	957.282	1025.386	-47.644	731.900	1291.249	-580.713	590.984	1234.264	-532.254	632.094	1267.444	-613.808	745.436	1139.055	-590.742	831.437	1090.415	-518.862	792.959	1051.291	-568.902
456	2.27500	792.747	460.787	-174.051	751.844	345.657	-187.816	509.072	140.896	-261.216	427.268	145.929	-329.444	575.090	35.993	-225.945	627.248	47.468	-284.594	1086.780	585.085	-464.363	996.875	517.709	-464.618	681.345	498.194	-447.583	633.907	546.768	-400.163	663.851	336.077	-467.847	680.038	307.516	-395.871	671.673	260.454	-212.450	696.238	388.456	-162.507	612.152	316.772	-197.411	982.296	603.728	-487.684	864.646	576.471	-475.571	881.066	677.725	-124.017	868.700	566.404	-153.737	821.751	536.104	-146.696	767.149	680.364	-115.936	764.074	568.127	-153.035	1032.835	803.402	-449.919	1114.509	689.784	-439.923	949.893	746.394	-512.088	1028.029	634.283	-479.872	878.887	957.773	-159.916	680.067	1027.304	-254.137	887.029	951.721	-430.974	691.316	1031.421	-349.681	812.347	1506.794	-289.861	873.208	1452.729	-94.024	871.512	1485.209	-486.303	965.707	1387.546	-300.433	814.250	1221.087	-32.733	691.204	1115.483	-77.079	708.285	1139.325	10.414	878.876	1104.386	-33.707	978.471	1080.685	-75.686	968.492	1036.543	-49.340	724.795	1297.049	-580.588	583.600	1241.405	-530.655	624.691	1274.268	-612.763	737.660	1146.111	-591.007	824.636	1098.083	-520.900	785.179	1058.025	-569.570
457	2.28000	773.925	462.426	-173.154	729.776	347.823	-184.498	482.609	146.755	-259.262	401.782	156.586	-327.367	543.884	37.237	-225.189	595.726	47.537	-283.691	1096.547	596.902	-462.118	1010.579	523.679	-462.235	697.209	480.278	-447.116	645.674	524.510	-399.704	693.413	317.403	-469.175	713.488	290.120	-397.477	647.458	264.912	-209.615	674.524	392.451	-162.010	589.308	322.803	-196.433	989.510	608.326	-484.141	874.074	571.895	-473.953	872.853	674.922	-124.638	855.360	564.163	-153.831	807.197	535.913	-146.025	759.332	683.064	-115.665	750.572	569.998	-153.035	1035.617	813.592	-449.457	1120.586	702.732	-437.954	954.359	753.607	-511.334	1036.195	643.624	-477.207	881.381	957.792	-160.302	682.359	1028.769	-252.440	888.309	957.707	-432.472	692.145	1031.986	-349.557	810.583	1509.570	-289.182	875.445	1456.731	-95.147	865.736	1489.042	-486.677	965.055	1391.661	-303.160	820.052	1224.979	-31.408	698.681	1117.249	-74.403	716.331	1141.646	12.990	887.308	1112.502	-34.177	986.697	1092.480	-77.969	978.968	1048.358	-51.768	717.842	1303.096	-580.449	577.082	1248.098	-529.229	617.342	1281.058	-611.503	730.141	1153.577	-591.120	818.032	1104.556	-521.211	777.646	1065.374	-570.259
458	2.28500	755.528	465.402	-172.072	707.605	351.216	-181.764	456.999	152.932	-256.817	377.872	167.241	-324.972	513.284	38.551	-224.479	564.584	47.399	-283.113	1105.676	608.581	-460.149	1023.508	529.089	-460.443	714.295	461.945	-446.709	658.952	501.798	-399.270	724.512	300.257	-470.056	744.467	273.190	-398.077	623.401	269.961	-206.949	653.471	397.374	-159.438	566.768	329.974	-195.329	996.397	612.437	-480.682	883.821	566.521	-472.053	864.713	673.605	-125.029	842.217	563.236	-153.703	792.420	540.351	-143.630	751.705	686.492	-115.202	738.096	574.823	-151.789	1038.181	823.523	-449.065	1126.043	715.070	-435.957	959.310	760.348	-510.538	1042.391	652.074	-474.850	884.635	958.216	-160.720	684.940	1030.399	-250.280	889.058	963.391	-433.786	693.107	1032.797	-349.331	808.845	1512.323	-288.674	877.351	1460.896	-96.210	859.815	1493.422	-487.172	964.216	1395.746	-306.010	825.745	1229.218	-30.119	705.982	1119.515	-71.868	723.887	1144.780	15.210	895.042	1121.255	-34.756	994.153	1105.051	-80.006	988.488	1060.734	-54.005	711.075	1309.290	-580.098	570.382	1255.175	-527.579	610.024	1288.019	-610.348	722.627	1161.153	-592.101	811.717	1112.552	-521.768	770.404	1073.042	-570.733
